<svg width="512" height="416" viewBox="0 0 512 416" fill="none" xmlns="http://www.w3.org/2000/svg">
<path d="M459.4 103.7C459.7 108.2 459.7 112.8 459.7 117.3C459.7 256 354.1 415.9 161.1 415.9C101.6 415.9 46.4 398.7 0 368.8C8.4 369.8 16.6 370.1 25.3 370.1C74.4 370.1 119.5 353.5 155.6 325.3C109.5 324.3 70.8 294.1 57.5 252.5C64 253.5 70.5 254.1 77.3 254.1C86.7 254.1 96.1 252.8 104.9 250.5C56.8 240.8 20.8 198.5 20.8 147.5V146.2C34.8 154 51 158.9 68.2 159.5C39.9 140.7 21.4 108.5 21.4 72.1C21.4 52.6 26.6 34.7 35.7 19.1C87.4 82.8 165 124.4 252.1 128.9C250.5 121.1 249.5 113 249.5 104.9C249.5 47.1 296.3 0 354.4 0C384.6 0 411.9 12.7 431.1 33.1C454.8 28.6 477.6 19.8 497.7 7.8C489.9 32.2 473.3 52.6 451.6 65.6C472.7 63.3 493.2 57.5 512 49.4C497.7 70.2 479.8 88.7 459.4 103.7Z" fill="#EBAC56"/>
</svg>
