<svg width="101" height="101" viewBox="0 0 101 101" fill="none" xmlns="http://www.w3.org/2000/svg">
<path d="M50.3792 100.758L35.4437 86.0458H14.7125V65.3146L0 50.3792L14.7125 35.4437V14.7125H35.4437L50.3792 0L65.3146 14.7125H86.0458V35.4437L100.758 50.3792L86.0458 65.3146V86.0458H65.3146L50.3792 100.758ZM50.3792 72.6708C56.5465 72.6708 61.8036 70.4974 66.1505 66.1505C70.4974 61.8036 72.6708 56.5465 72.6708 50.3792C72.6708 44.2118 70.4974 38.9547 66.1505 34.6078C61.8036 30.2609 56.5465 28.0875 50.3792 28.0875C44.2118 28.0875 38.9547 30.2609 34.6078 34.6078C30.2609 38.9547 28.0875 44.2118 28.0875 50.3792C28.0875 56.5465 30.2609 61.8036 34.6078 66.1505C38.9547 70.4974 44.2118 72.6708 50.3792 72.6708ZM50.3792 63.7542C46.6639 63.7542 43.5059 62.4538 40.9052 59.8531C38.3045 57.2524 37.0042 54.0944 37.0042 50.3792C37.0042 46.6639 38.3045 43.5059 40.9052 40.9052C43.5059 38.3045 46.6639 37.0042 50.3792 37.0042C54.0944 37.0042 57.2524 38.3045 59.8531 40.9052C62.4538 43.5059 63.7542 46.6639 63.7542 50.3792C63.7542 54.0944 62.4538 57.2524 59.8531 59.8531C57.2524 62.4538 54.0944 63.7542 50.3792 63.7542ZM50.3792 88.275L61.525 77.1292H77.1292V61.525L88.275 50.3792L77.1292 39.2333V23.6292H61.525L50.3792 12.4833L39.2333 23.6292H23.6292V39.2333L12.4833 50.3792L23.6292 61.525V77.1292H39.2333L50.3792 88.275Z" fill="#EBAC56"/>
</svg>
