<svg width="448" height="512" viewBox="0 0 448 512" fill="none" xmlns="http://www.w3.org/2000/svg">
<path d="M448 209.9C403.96 209.994 361.003 196.247 325.2 170.6V349.4C325.19 382.515 315.069 414.837 296.191 442.044C277.314 469.25 250.579 490.045 219.563 501.646C188.547 513.246 154.728 515.101 122.629 506.96C90.5309 498.82 61.683 481.073 39.9439 456.093C18.2048 431.114 4.61094 400.092 0.980346 367.177C-2.65025 334.262 3.85554 301.023 19.6276 271.905C35.3997 242.788 59.6861 219.18 89.2387 204.24C118.791 189.299 152.201 183.738 185 188.3V278.2C170.003 273.479 153.897 273.617 138.983 278.595C124.069 283.572 111.109 293.135 101.953 305.917C92.7973 318.699 87.9144 334.047 88.0013 349.77C88.0882 365.493 93.1406 380.786 102.437 393.466C111.733 406.146 124.798 415.565 139.767 420.377C154.735 425.19 170.841 425.15 185.785 420.263C200.73 415.377 213.748 405.893 222.981 393.167C232.215 380.441 237.191 365.123 237.2 349.4V0H325.2C325.15 7.44264 325.786 14.874 327.1 22.2C330.16 38.53 336.519 54.0645 345.786 67.8539C355.054 81.6434 367.036 93.3982 381 102.4C400.878 115.528 424.178 122.519 448 122.5V209.9Z" fill="#EBAC56"/>
</svg>
