<svg width="105" height="77" viewBox="0 0 105 77" fill="none" xmlns="http://www.w3.org/2000/svg">
<path d="M61.9167 28.6125V20.6083C64.5062 19.5097 67.1547 18.6857 69.862 18.1364C72.5693 17.5871 75.4139 17.3125 78.3958 17.3125C80.4361 17.3125 82.4371 17.4694 84.399 17.7833C86.3608 18.0972 88.2833 18.4896 90.1667 18.9604V26.4937C88.2833 25.7875 86.3804 25.2578 84.4578 24.9047C82.5352 24.5515 80.5146 24.375 78.3958 24.375C75.4139 24.375 72.5496 24.7477 69.8031 25.4932C67.0566 26.2387 64.4278 27.2785 61.9167 28.6125ZM61.9167 54.5083V46.5041C64.5062 45.4055 67.1547 44.5816 69.862 44.0323C72.5693 43.483 75.4139 43.2083 78.3958 43.2083C80.4361 43.2083 82.4371 43.3653 84.399 43.6791C86.3608 43.993 88.2833 44.3854 90.1667 44.8562V52.3896C88.2833 51.6833 86.3804 51.1536 84.4578 50.8005C82.5352 50.4474 80.5146 50.2708 78.3958 50.2708C75.4139 50.2708 72.5496 50.6239 69.8031 51.3302C67.0566 52.0364 64.4278 53.0958 61.9167 54.5083ZM61.9167 41.5604V33.5562C64.5062 32.4576 67.1547 31.6337 69.862 31.0844C72.5693 30.5351 75.4139 30.2604 78.3958 30.2604C80.4361 30.2604 82.4371 30.4173 84.399 30.7312C86.3608 31.0451 88.2833 31.4375 90.1667 31.9083V39.4416C88.2833 38.7354 86.3804 38.2057 84.4578 37.8526C82.5352 37.4995 80.5146 37.3229 78.3958 37.3229C75.4139 37.3229 72.5496 37.6956 69.8031 38.4411C67.0566 39.1866 64.4278 40.2264 61.9167 41.5604ZM26.6042 57.3333C30.2924 57.3333 33.8825 57.7453 37.3745 58.5693C40.8665 59.3932 44.3389 60.6291 47.7917 62.2771V15.9C44.5743 14.0166 41.1608 12.6041 37.551 11.6625C33.9413 10.7208 30.2924 10.25 26.6042 10.25C23.7792 10.25 20.9738 10.5246 18.188 11.0739C15.4023 11.6232 12.7146 12.4472 10.125 13.5458V60.1583C12.8715 59.2166 15.5984 58.5104 18.3057 58.0396C21.013 57.5687 23.7792 57.3333 26.6042 57.3333ZM57.2083 62.2771C60.6611 60.6291 64.1335 59.3932 67.6255 58.5693C71.1175 57.7453 74.7076 57.3333 78.3958 57.3333C81.2208 57.3333 83.987 57.5687 86.6943 58.0396C89.4016 58.5104 92.1285 59.2166 94.875 60.1583V13.5458C92.2854 12.4472 89.5977 11.6232 86.812 11.0739C84.0262 10.5246 81.2208 10.25 78.3958 10.25C74.7076 10.25 71.0587 10.7208 67.449 11.6625C63.8392 12.6041 60.4257 14.0166 57.2083 15.9V62.2771ZM52.5 76.1667C48.7333 73.1847 44.6528 70.8698 40.2583 69.2219C35.8639 67.5739 31.3125 66.75 26.6042 66.75C23.3083 66.75 20.0713 67.1816 16.8932 68.0448C13.7151 68.908 10.6743 70.1243 7.77083 71.6937C6.12291 72.5569 4.53385 72.5177 3.00364 71.576C1.47343 70.6344 0.708328 69.2611 0.708328 67.4562V10.7208C0.708328 9.85762 0.924127 9.03366 1.35572 8.24894C1.78732 7.46422 2.43472 6.87567 3.29791 6.48331C6.90763 4.59998 10.6743 3.18748 14.5979 2.24581C18.5215 1.30415 22.5236 0.833313 26.6042 0.833313C31.1556 0.833313 35.6088 1.42185 39.9641 2.59894C44.3193 3.77602 48.4979 5.54165 52.5 7.89581C56.5021 5.54165 60.6807 3.77602 65.0359 2.59894C69.3911 1.42185 73.8444 0.833313 78.3958 0.833313C82.4764 0.833313 86.4785 1.30415 90.4021 2.24581C94.3257 3.18748 98.0924 4.59998 101.702 6.48331C102.565 6.87567 103.213 7.46422 103.644 8.24894C104.076 9.03366 104.292 9.85762 104.292 10.7208V67.4562C104.292 69.2611 103.527 70.6344 101.996 71.576C100.466 72.5177 98.8771 72.5569 97.2292 71.6937C94.3257 70.1243 91.2849 68.908 88.1068 68.0448C84.9286 67.1816 81.6917 66.75 78.3958 66.75C73.6875 66.75 69.1361 67.5739 64.7417 69.2219C60.3472 70.8698 56.2667 73.1847 52.5 76.1667Z" fill="#EBAC56"/>
</svg>
